<svg width="170" height="186" viewBox="0 0 170 186" fill="none" xmlns="http://www.w3.org/2000/svg">
<path fill-rule="evenodd" clip-rule="evenodd" d="M169.701 86.8884L169.701 43.4177L169.701 43.3283L127.187 0L42.5142 5.55508e-05V43.4177H0V86.8884L42.5142 130.306H42.6019L127.187 130.306V86.8884H169.701ZM127.187 86.8884L127.187 43.4178L42.5142 43.4177L42.5141 86.8884L127.187 86.8884Z" fill="#575757"/>
<path d="M0 185.313V151.137H12.6025C14.9706 151.137 16.9494 151.527 18.5389 152.308C20.1284 153.057 21.3124 154.099 22.0909 155.433C22.9019 156.735 23.3074 158.216 23.3074 159.876C23.3074 161.601 22.9343 163.05 22.1882 164.221C21.4422 165.393 20.4528 166.304 19.2201 166.955C18.0198 167.574 16.7223 167.932 15.3274 168.029L16.0086 167.541C17.5008 167.574 18.8633 167.981 20.0959 168.762C21.3286 169.51 22.3018 170.519 23.0154 171.789C23.7291 173.058 24.0859 174.458 24.0859 175.988C24.0859 177.745 23.6642 179.34 22.8208 180.772C21.9774 182.172 20.7285 183.279 19.0741 184.092C17.4197 184.906 15.3923 185.313 12.9918 185.313H0ZM4.86584 181.261H12.3592C14.5002 181.261 16.1546 180.772 17.3224 179.796C18.5226 178.787 19.1228 177.371 19.1228 175.548C19.1228 173.758 18.5064 172.326 17.2737 171.252C16.0735 170.178 14.4029 169.641 12.2619 169.641H4.86584V181.261ZM4.86584 165.881H12.0673C14.1109 165.881 15.668 165.409 16.7385 164.465C17.809 163.489 18.3442 162.154 18.3442 160.462C18.3442 158.834 17.809 157.549 16.7385 156.605C15.668 155.628 14.0623 155.14 11.9213 155.14H4.86584V165.881Z" fill="white"/>
<path d="M26.2394 185.313V160.755C32.1077 160.755 33.0441 160.755 39.9614 160.755V165.295C34.9612 165.295 31.1053 165.295 31.1053 165.295L31.1053 185.313H26.2394Z" fill="white"/>
<path d="M49.5388 185.899C47.5276 185.899 45.857 185.557 44.527 184.874C43.197 184.19 42.2076 183.279 41.5589 182.139C40.9101 180.968 40.5857 179.715 40.5857 178.38C40.5857 176.753 41.0074 175.369 41.8508 174.23C42.6942 173.058 43.8945 172.163 45.4515 171.545C47.0086 170.926 48.8738 170.617 51.0473 170.617H57.4215C57.4215 169.185 57.2107 167.997 56.7889 167.053C56.3672 166.109 55.7347 165.409 54.8913 164.954C54.0803 164.465 53.0423 164.221 51.7771 164.221C50.3174 164.221 49.0685 164.579 48.0304 165.295C46.9924 165.979 46.3436 167.004 46.0841 168.371H41.2183C41.4129 166.646 41.9968 165.181 42.97 163.977C43.9756 162.74 45.2569 161.796 46.814 161.145C48.371 160.462 50.0254 160.12 51.7771 160.12C54.0803 160.12 56.0104 160.527 57.5675 161.341C59.1246 162.154 60.2924 163.31 61.0709 164.807C61.8819 166.272 62.2874 168.029 62.2874 170.08V185.313H58.0541L57.6648 181.163C57.308 181.814 56.8863 182.432 56.3997 183.018C55.9131 183.604 55.3292 184.109 54.648 184.532C53.9992 184.955 53.2369 185.28 52.361 185.508C51.5176 185.769 50.5769 185.899 49.5388 185.899ZM50.4634 181.944C51.5014 181.944 52.4421 181.733 53.2855 181.309C54.129 180.886 54.8426 180.317 55.4265 179.601C56.0429 178.852 56.497 178.022 56.7889 177.111C57.1133 176.167 57.2918 175.207 57.3242 174.23V174.084H51.5338C50.139 174.084 49.0036 174.263 48.1278 174.621C47.2843 174.946 46.668 175.402 46.2787 175.988C45.8895 176.574 45.6948 177.257 45.6948 178.038C45.6948 178.852 45.8732 179.552 46.2301 180.138C46.6193 180.691 47.1708 181.13 47.8845 181.456C48.5981 181.781 49.4577 181.944 50.4634 181.944Z" fill="white"/>
<path d="M76.4295 185.899C74.0614 185.899 71.9529 185.362 70.1039 184.288C68.2548 183.181 66.7951 181.667 65.7246 179.747C64.6866 177.827 64.1675 175.597 64.1675 173.058C64.1675 170.487 64.6866 168.241 65.7246 166.321C66.7951 164.368 68.2548 162.854 70.1039 161.78C71.9529 160.673 74.0614 160.12 76.4295 160.12C79.4139 160.12 81.9117 160.901 83.9229 162.464C85.9341 164.026 87.2154 166.142 87.7669 168.811H82.7064C82.382 167.378 81.6359 166.272 80.4681 165.491C79.3328 164.709 77.9703 164.319 76.3808 164.319C75.0833 164.319 73.883 164.661 72.7801 165.344C71.6772 165.995 70.7851 166.972 70.1039 168.274C69.4551 169.543 69.1307 171.122 69.1307 173.009C69.1307 174.409 69.3253 175.662 69.7146 176.769C70.1039 177.843 70.6229 178.754 71.2717 179.503C71.9529 180.252 72.7314 180.821 73.6073 181.212C74.4831 181.57 75.4076 181.749 76.3808 181.749C77.4513 181.749 78.4082 181.586 79.2517 181.261C80.1275 180.903 80.8574 180.382 81.4413 179.698C82.0576 179.015 82.4793 178.201 82.7064 177.257H87.7669C87.2154 179.861 85.9341 181.96 83.9229 183.555C81.9117 185.118 79.4139 185.899 76.4295 185.899Z" fill="white"/>
<path d="M105.479 185.313L94.1902 171.838L104.408 160.706H110.296L98.1315 173.742V170.08L111.61 185.313H105.479ZM90.0542 185.313V150.16H94.9201V185.313H90.0542Z" fill="white"/>
<path d="M121.549 185.899C119.213 185.899 117.137 185.362 115.32 184.288C113.504 183.214 112.077 181.716 111.039 179.796C110.033 177.876 109.53 175.646 109.53 173.107C109.53 170.503 110.033 168.241 111.039 166.321C112.077 164.368 113.504 162.854 115.32 161.78C117.137 160.673 119.246 160.12 121.646 160.12C124.047 160.12 126.106 160.657 127.826 161.731C129.545 162.805 130.875 164.238 131.816 166.028C132.756 167.785 133.227 169.738 133.227 171.887C133.227 172.212 133.211 172.57 133.178 172.961C133.178 173.319 133.162 173.726 133.129 174.181H113.082V170.715H128.361C128.264 168.664 127.582 167.069 126.317 165.93C125.052 164.758 123.479 164.172 121.597 164.172C120.267 164.172 119.051 164.482 117.948 165.1C116.845 165.686 115.953 166.565 115.272 167.737C114.623 168.876 114.299 170.324 114.299 172.082V173.449C114.299 175.272 114.623 176.818 115.272 178.087C115.953 179.324 116.845 180.268 117.948 180.919C119.051 181.537 120.251 181.846 121.549 181.846C123.106 181.846 124.387 181.505 125.393 180.821C126.398 180.138 127.144 179.21 127.631 178.038H132.497C132.075 179.535 131.362 180.886 130.356 182.091C129.35 183.262 128.101 184.19 126.609 184.874C125.149 185.557 123.463 185.899 121.549 185.899Z" fill="white"/>
<path d="M144.682 185.313C143.125 185.313 141.779 185.069 140.644 184.581C139.508 184.092 138.633 183.279 138.016 182.139C137.4 181 137.092 179.454 137.092 177.501V164.856H132.858V160.706H137.092L137.676 154.554H141.958V160.706H148.916V164.856H141.958V177.55C141.958 178.95 142.249 179.91 142.833 180.431C143.417 180.919 144.423 181.163 145.85 181.163H148.672V185.313H144.682Z" fill="white"/>
<path d="M160.364 185.899C158.288 185.899 156.471 185.557 154.914 184.874C153.357 184.19 152.124 183.23 151.216 181.993C150.308 180.756 149.756 179.308 149.562 177.648H154.525C154.687 178.429 154.995 179.145 155.449 179.796C155.936 180.447 156.585 180.968 157.396 181.358C158.239 181.749 159.228 181.944 160.364 181.944C161.434 181.944 162.31 181.798 162.991 181.505C163.705 181.179 164.224 180.756 164.548 180.235C164.873 179.682 165.035 179.096 165.035 178.478C165.035 177.566 164.808 176.883 164.354 176.427C163.932 175.939 163.283 175.565 162.407 175.304C161.564 175.011 160.542 174.751 159.342 174.523C158.207 174.328 157.104 174.067 156.033 173.742C154.995 173.384 154.054 172.944 153.211 172.424C152.4 171.903 151.751 171.252 151.265 170.471C150.778 169.657 150.535 168.664 150.535 167.492C150.535 166.093 150.908 164.84 151.654 163.733C152.4 162.594 153.454 161.715 154.817 161.097C156.212 160.446 157.85 160.12 159.731 160.12C162.456 160.12 164.646 160.771 166.3 162.073C167.954 163.375 168.928 165.214 169.22 167.59H164.5C164.37 166.483 163.883 165.637 163.04 165.051C162.197 164.433 161.077 164.124 159.683 164.124C158.288 164.124 157.217 164.4 156.471 164.954C155.725 165.507 155.352 166.239 155.352 167.151C155.352 167.737 155.563 168.257 155.984 168.713C156.406 169.169 157.023 169.559 157.834 169.885C158.677 170.178 159.699 170.454 160.899 170.715C162.618 171.04 164.159 171.447 165.522 171.935C166.884 172.424 167.971 173.14 168.782 174.084C169.593 175.027 169.998 176.378 169.998 178.136C170.031 179.666 169.641 181.016 168.83 182.188C168.052 183.36 166.933 184.271 165.473 184.922C164.046 185.573 162.343 185.899 160.364 185.899Z" fill="white"/>
</svg>
